<svg width="18" height="17" viewBox="0 0 18 17" fill="none" xmlns="http://www.w3.org/2000/svg">
<path id="Vector" d="M9.39262 0C10.5206 0 11.6023 0.432223 12.3999 1.20158C13.1975 1.97095 13.6456 3.01443 13.6456 4.10247C13.6456 5.19051 13.1975 6.23399 12.3999 7.00335C11.6023 7.77271 10.5206 8.20494 9.39262 8.20494C8.26467 8.20494 7.18291 7.77271 6.38533 7.00335C5.58775 6.23399 5.13967 5.19051 5.13967 4.10247C5.13967 3.01443 5.58775 1.97095 6.38533 1.20158C7.18291 0.432223 8.26467 0 9.39262 0ZM9.39262 10.2562C14.0921 10.2562 17.8985 12.092 17.8985 14.3586V16.4099H0.886719V14.3586C0.886719 12.092 4.69311 10.2562 9.39262 10.2562Z" fill="#F0F0F0"/>
</svg>
